#!OML:ASF F:\VICON\USERDATA\INSTALL\Justin_Nancy\Justin_Nancy.ASF
:FULLY-SPECIFIED
:DEGREES
206
root 13.2054 17.5673 0.0598991 2.61141 -9.54428 4.71808
lowerback 8.02259 -1.00548 -5.36854
upperback 0.273851 -1.78245 1.14928
thorax -4.0183 -0.77366 4.42108
lowerneck -17.639 -4.55333 -9.03322
upperneck 23.3195 -5.47523 6.30503
head 10.8725 -2.56189 2.98662
rclavicle -4.73108e-014 -7.15625e-015
rhumerus -33.2117 -16.4621 -78.367
rradius 29.9696
rwrist 8.1336
rhand -14.1459 12.5251
rfingers 7.12502
rthumb 11.9884 -17.1116
lclavicle -4.73108e-014 -7.15625e-015
lhumerus -20.4641 6.57839 81.8208
lradius 27.1811
lwrist -8.122
lhand -15.0468 26.9354
lfingers 7.12502
lthumb 11.1196 56.6208
rfemur -32.6051 -9.02144 20.6273
rtibia 32.0821
rfoot -8.06158 -13.6412
rtoes -6.31209
lfemur -10.8021 0.15374 -24.5183
ltibia 25.2612
lfoot -14.0215 7.48335
ltoes -0.81056
207
root 13.1719 17.5658 0.161288 2.67177 -9.93984 4.88977
lowerback 7.59134 -0.989737 -5.36457
upperback 0.415741 -1.73825 1.04269
thorax -3.63657 -0.768288 4.28599
lowerneck -17.3474 -4.43219 -9.22993
upperneck 23.0521 -5.34885 6.63763
head 10.7218 -2.48653 3.15998
rclavicle 2.5842e-015 -6.36111e-015
rhumerus -33.0934 -16.8668 -78.3187
rradius 29.8265
rwrist 8.26312
rhand -15.0548 13.1079
rfingers 7.12502
rthumb 11.1119 -16.5779
lclavicle 2.5842e-015 -6.36111e-015
lhumerus -19.981 6.41433 81.6664
lradius 27.1313
lwrist -8.30456
lhand -14.8908 26.3589
lfingers 7.12502
lthumb 11.27 56.0362
rfemur -32.5161 -9.06605 20.739
rtibia 29.8471
rfoot -7.629 -14.4158
rtoes -5.56381
lfemur -10.1451 0.810854 -24.7353
ltibia 25.0151
lfoot -14.8084 7.6493
ltoes -4.41621
208
root 13.1395 17.5624 0.256432 2.65897 -10.3442 5.09618
lowerback 7.60666 -0.983639 -5.4731
upperback 0.33648 -1.74506 0.971358
thorax -3.72625 -0.765694 4.27538
lowerneck -17.0077 -4.35192 -9.41144
upperneck 23.1737 -5.25967 6.77261
head 10.7021 -2.45422 3.25876
rclavicle -1.22253e-014 8.74653e-015
rhumerus -33.3153 -16.7647 -78.3339
rradius 29.9189
rwrist 8.24249
rhand -14.7073 13.1036
rfingers 7.12502
rthumb 11.4471 -16.5639
lclavicle -1.22253e-014 8.74653e-015
lhumerus -19.911 6.20557 81.5046
lradius 27.2165
lwrist -7.95993
lhand -14.5928 26.7744
lfingers 7.12502
lthumb 11.5574 56.4358
rfemur -32.3863 -8.93399 20.7
rtibia 27.8147
rfoot -6.99738 -15.2014
rtoes -5.15969
lfemur -9.46917 1.09028 -24.9551
ltibia 24.6425
lfoot -15.0577 7.99595
ltoes -5.09614
209
root 13.1104 17.5552 0.356766 2.61279 -10.6433 5.44385
lowerback 7.82063 -1.05996 -5.81107
upperback 0.103413 -1.894 1.00141
thorax -4.06184 -0.816403 4.52486
lowerneck -16.8417 -4.22426 -9.50339
upperneck 23.4499 -5.04229 6.61161
head 10.7496 -2.38842 3.25399
rclavicle -2.18663e-015 1.82882e-014
rhumerus -33.7605 -16.3287 -78.1412
rradius 29.9629
rwrist 8.1866
rhand -14.043 12.686
rfingers 7.12502
rthumb 12.0877 -16.9448
lclavicle -2.18663e-015 1.82882e-014
lhumerus -20.001 6.32039 81.4444
lradius 27.2058
lwrist -7.49871
lhand -14.2061 27.8972
lfingers 7.12502
lthumb 11.9304 57.5373
rfemur -32.2092 -9.03563 20.487
rtibia 25.884
rfoot -6.90916 -16.2263
rtoes -3.3447
lfemur -8.87385 0.986249 -25.33
ltibia 24.2165
lfoot -14.8476 8.34653
ltoes -3.51541
210
root 13.0819 17.5456 0.462685 2.67035 -10.9682 5.92308
lowerback 7.71176 -1.13213 -6.13222
upperback -0.0998334 -2.02171 0.911885
thorax -4.1911 -0.864521 4.62629
lowerneck -16.6732 -4.14143 -9.5517
upperneck 23.5986 -4.90844 6.50357
head 10.7579 -2.34977 3.24644
rclavicle 7.7526e-015 3.18055e-015
rhumerus -34.227 -16.0726 -77.9709
rradius 30.0436
rwrist 8.15952
rhand -14.3964 13.2191
rfingers 7.12502
rthumb 11.7469 -16.4315
lclavicle 7.7526e-015 3.18055e-015
lhumerus -20.0308 6.45456 81.3392
lradius 27.1601
lwrist -7.17744
lhand -14.1757 27.9495
lfingers 7.12502
lthumb 11.9597 57.5878
rfemur -32.1669 -9.15332 20.1833
rtibia 24.1865
rfoot -8.2058 -17.1169
rtoes 3.05805
lfemur -8.54493 0.619837 -25.8215
ltibia 23.6515
lfoot -14.4449 8.97968
ltoes -2.05532
211
root 13.047 17.5469 0.562889 2.67421 -11.3469 6.23209
lowerback 7.59031 -1.14998 -6.31117
upperback -0.112469 -2.05702 0.837591
thorax -4.1285 -0.881036 4.64892
lowerneck -16.9673 -4.1742 -9.49749
upperneck 23.8875 -4.92013 6.36832
head 10.9181 -2.36384 3.18808
rclavicle -4.86029e-014 2.38542e-015
rhumerus -34.232 -16.0979 -77.9172
rradius 30.0194
rwrist 8.32664
rhand -14.4508 13.7045
rfingers 7.12502
rthumb 11.6944 -15.9491
lclavicle -4.86029e-014 2.38542e-015
lhumerus -19.8791 6.53678 81.1898
lradius 27.361
lwrist -7.14942
lhand -14.1327 28.004
lfingers 7.12502
lthumb 12.0012 57.64
rfemur -32.0367 -9.03154 20.0779
rtibia 22.6242
rfoot -9.3445 -19.4027
rtoes 3.43351
lfemur -7.77168 0.998847 -26.1653
ltibia 23.1021
lfoot -14.5031 9.44673
ltoes -3.1912
212
root 13.0109 17.5392 0.661433 2.64399 -11.7493 6.48848
lowerback 7.49841 -1.16985 -6.4735
upperback -0.0920895 -2.09306 0.786295
thorax -4.04741 -0.899657 4.68657
lowerneck -16.9636 -4.24254 -9.50208
upperneck 23.8359 -4.99726 6.30368
head 10.9041 -2.40701 3.15238
rclavicle 5.14852e-014 1.59028e-014
rhumerus -34.1414 -16.2013 -77.8773
rradius 29.8774
rwrist 8.63125
rhand -14.1975 13.4459
rfingers 7.12502
rthumb 11.9387 -16.1936
lclavicle 5.14852e-014 1.59028e-014
lhumerus -19.8913 6.67373 81.0697
lradius 27.7858
lwrist -7.11125
lhand -14.1652 27.962
lfingers 7.12502
lthumb 11.9698 57.5997
rfemur -31.9447 -8.88914 20.0555
rtibia 21.2071
rfoot -8.68279 -20.7442
rtoes 7.34244
lfemur -7.15753 0.85667 -26.3997
ltibia 22.6154
lfoot -14.5564 9.85584
ltoes -2.16348
